G04 Layer_Color=8150272*
%FSLAX44Y44*%
%MOMM*%
G71*
G01*
G75*
%ADD28R,1.7032X1.7032*%
%ADD29C,1.7032*%
%ADD30C,1.9032*%
%ADD31C,1.7272*%
%ADD32R,1.7532X1.7532*%
%ADD33C,1.7532*%
%ADD34R,2.0032X2.0032*%
%ADD35C,2.0032*%
%ADD36R,1.4032X2.7032*%
%ADD37O,1.4032X2.7032*%
%ADD38C,1.6032*%
D28*
X563800Y584900D02*
D03*
D29*
X589200D02*
D03*
X614600D02*
D03*
X640000D02*
D03*
X665400D02*
D03*
X690800D02*
D03*
X716200D02*
D03*
X563800Y661100D02*
D03*
X589200D02*
D03*
X614600D02*
D03*
X640000D02*
D03*
X665400D02*
D03*
X690800D02*
D03*
X716200D02*
D03*
D30*
X594674Y542800D02*
D03*
Y441200D02*
D03*
X426511Y542800D02*
D03*
Y441200D02*
D03*
X775000Y542800D02*
D03*
Y441200D02*
D03*
X931000Y542800D02*
D03*
Y441200D02*
D03*
D31*
X505000Y587000D02*
D03*
Y657000D02*
D03*
X715000Y527000D02*
D03*
Y457000D02*
D03*
X869000Y854000D02*
D03*
Y784000D02*
D03*
X565000Y976000D02*
D03*
X495000D02*
D03*
X365000Y527000D02*
D03*
Y457000D02*
D03*
X533163Y527000D02*
D03*
Y457000D02*
D03*
X869489Y527000D02*
D03*
Y457000D02*
D03*
D32*
X564300Y1020000D02*
D03*
D33*
X538900D02*
D03*
X513500D02*
D03*
X488100D02*
D03*
X462700D02*
D03*
X437300D02*
D03*
X411900D02*
D03*
X386500D02*
D03*
X361100D02*
D03*
X335700D02*
D03*
D34*
X846900Y1014000D02*
D03*
D35*
X821500D02*
D03*
X796100D02*
D03*
X770700D02*
D03*
X745300D02*
D03*
X719900D02*
D03*
X694500D02*
D03*
X669100D02*
D03*
D36*
X817000Y933000D02*
D03*
D37*
X791600D02*
D03*
X766200D02*
D03*
X740800D02*
D03*
X715400D02*
D03*
X690000D02*
D03*
X664600D02*
D03*
X639200D02*
D03*
X613800D02*
D03*
X588400D02*
D03*
X563000D02*
D03*
X537600D02*
D03*
X512200D02*
D03*
X486800D02*
D03*
X461400D02*
D03*
X436000D02*
D03*
X410600D02*
D03*
X385200D02*
D03*
X359800D02*
D03*
X334400D02*
D03*
X817000Y704400D02*
D03*
X791600D02*
D03*
X766200D02*
D03*
X740800D02*
D03*
X715400D02*
D03*
X690000D02*
D03*
X664600D02*
D03*
X639200D02*
D03*
X613800D02*
D03*
X588400D02*
D03*
X563000D02*
D03*
X537600D02*
D03*
X512200D02*
D03*
X486800D02*
D03*
X461400D02*
D03*
X436000D02*
D03*
X410600D02*
D03*
X385200D02*
D03*
X359800D02*
D03*
X334400D02*
D03*
D38*
X650000Y309000D02*
D03*
M02*
