G04 Layer_Physical_Order=1*
G04 Layer_Color=25308*
%FSLAX44Y44*%
%MOMM*%
G71*
G01*
G75*
%ADD10R,15.0000X7.0000*%
%ADD11C,0.3000*%
%ADD12R,1.5000X1.5000*%
%ADD13C,1.5000*%
%ADD14C,1.7000*%
%ADD15C,1.5240*%
%ADD16R,1.5500X1.5500*%
%ADD17C,1.5500*%
%ADD18R,1.8000X1.8000*%
%ADD19C,1.8000*%
%ADD20R,1.2000X2.5000*%
%ADD21O,1.2000X2.5000*%
%ADD22C,1.4000*%
G36*
X986941Y426794D02*
X986000Y426000D01*
X985671Y426000D01*
X912569D01*
Y433522D01*
X916678Y437631D01*
X921113D01*
X921828Y435905D01*
X923511Y433711D01*
X925705Y432028D01*
X928259Y430970D01*
X931000Y430609D01*
X933741Y430970D01*
X936295Y432028D01*
X938489Y433711D01*
X940172Y435905D01*
X941230Y438459D01*
X941590Y441200D01*
X941230Y443941D01*
X940172Y446495D01*
X938489Y448689D01*
X936295Y450372D01*
X933741Y451430D01*
X931000Y451791D01*
X928259Y451430D01*
X925705Y450372D01*
X923511Y448689D01*
X921828Y446495D01*
X921113Y444769D01*
X915200D01*
X913834Y444497D01*
X912677Y443723D01*
X909000Y440047D01*
X889523Y459523D01*
X888366Y460297D01*
X887000Y460569D01*
X878423D01*
X877891Y461852D01*
X876349Y463861D01*
X874340Y465403D01*
X872000Y466372D01*
X869489Y466703D01*
X866977Y466372D01*
X865694Y465841D01*
X820569Y510967D01*
Y534900D01*
X820297Y536266D01*
X819523Y537423D01*
X699549Y657398D01*
X700055Y658620D01*
X700382Y661100D01*
X700055Y663580D01*
X699098Y665891D01*
X697575Y667875D01*
X695591Y669398D01*
X693280Y670356D01*
X690800Y670682D01*
X688320Y670356D01*
X686009Y669398D01*
X684025Y667875D01*
X682502Y665891D01*
X681544Y663580D01*
X681218Y661100D01*
X681544Y658620D01*
X682502Y656309D01*
X684025Y654324D01*
X686009Y652802D01*
X688320Y651844D01*
X690800Y651518D01*
X693280Y651844D01*
X694502Y652351D01*
X813431Y533422D01*
Y509488D01*
X813703Y508123D01*
X814477Y506965D01*
X860648Y460794D01*
X860116Y459511D01*
X859786Y457000D01*
X860116Y454489D01*
X861085Y452149D01*
X862627Y450139D01*
X864637Y448597D01*
X866977Y447628D01*
X869489Y447297D01*
X872000Y447628D01*
X874340Y448597D01*
X876349Y450139D01*
X877891Y452149D01*
X878423Y453431D01*
X885522D01*
X905431Y433522D01*
Y426000D01*
X832000D01*
Y352000D01*
X985671D01*
X986000Y352000D01*
X986941Y351206D01*
Y347644D01*
X986540Y346540D01*
X985671Y346540D01*
X910270D01*
Y309000D01*
Y271460D01*
X985671D01*
X986540Y271460D01*
X986941Y270356D01*
Y270356D01*
Y263059D01*
X313059D01*
Y270356D01*
X313460Y271460D01*
X314329Y271460D01*
X389730D01*
Y309000D01*
Y346540D01*
X314329D01*
X313460Y346540D01*
X313059Y347644D01*
Y347644D01*
Y351206D01*
X314000Y352000D01*
X314329Y352000D01*
X468000D01*
Y426000D01*
X394569D01*
Y430522D01*
X401678Y437631D01*
X416624D01*
X417340Y435905D01*
X419023Y433711D01*
X421216Y432028D01*
X423770Y430970D01*
X426511Y430609D01*
X429253Y430970D01*
X431807Y432028D01*
X434000Y433711D01*
X435683Y435905D01*
X436741Y438459D01*
X437102Y441200D01*
X436741Y443941D01*
X435683Y446495D01*
X434000Y448689D01*
X431807Y450372D01*
X430080Y451087D01*
Y470033D01*
X541378Y581331D01*
X554300D01*
Y575400D01*
X573300D01*
Y593957D01*
X574511Y594542D01*
X580451Y588602D01*
X579944Y587380D01*
X579618Y584900D01*
X579944Y582420D01*
X580902Y580109D01*
X582425Y578125D01*
X584409Y576602D01*
X586720Y575644D01*
X589200Y575318D01*
X591680Y575644D01*
X593991Y576602D01*
X595975Y578125D01*
X597498Y580109D01*
X598455Y582420D01*
X598782Y584900D01*
X598455Y587380D01*
X597498Y589691D01*
X595975Y591675D01*
X593991Y593198D01*
X591680Y594156D01*
X589200Y594482D01*
X586720Y594156D01*
X585498Y593649D01*
X577623Y601523D01*
X576466Y602297D01*
X575100Y602569D01*
X545000D01*
X543634Y602297D01*
X542477Y601523D01*
X487322Y546369D01*
X436398D01*
X435683Y548095D01*
X434000Y550289D01*
X431807Y551972D01*
X429253Y553030D01*
X426511Y553391D01*
X423770Y553030D01*
X422044Y552314D01*
X337969Y636390D01*
Y690719D01*
X338434Y690912D01*
X340106Y692194D01*
X341388Y693866D01*
X342194Y695812D01*
X342469Y697900D01*
Y710900D01*
X342194Y712988D01*
X341388Y714934D01*
X340106Y716606D01*
X338434Y717888D01*
X336488Y718694D01*
X334400Y718969D01*
X332312Y718694D01*
X330365Y717888D01*
X328694Y716606D01*
X327412Y714934D01*
X326606Y712988D01*
X326331Y710900D01*
Y697900D01*
X326606Y695812D01*
X327412Y693866D01*
X328694Y692194D01*
X330365Y690912D01*
X330831Y690719D01*
Y634911D01*
X331103Y633546D01*
X331877Y632388D01*
X416997Y547268D01*
X416282Y545541D01*
X415921Y542800D01*
X416282Y540059D01*
X417340Y537505D01*
X419023Y535311D01*
X421216Y533628D01*
X423770Y532570D01*
X426511Y532209D01*
X429253Y532570D01*
X431807Y533628D01*
X434000Y535311D01*
X435683Y537505D01*
X436398Y539231D01*
X487389D01*
X487915Y537961D01*
X423988Y474035D01*
X423214Y472877D01*
X422943Y471511D01*
Y451087D01*
X421216Y450372D01*
X419023Y448689D01*
X417340Y446495D01*
X416624Y444769D01*
X401678D01*
X386923Y459523D01*
X385766Y460297D01*
X384400Y460569D01*
X373935D01*
X373403Y461852D01*
X371861Y463861D01*
X369851Y465403D01*
X367511Y466372D01*
X365000Y466703D01*
X362489Y466372D01*
X360149Y465403D01*
X358139Y463861D01*
X356597Y461852D01*
X355628Y459511D01*
X355297Y457000D01*
X355628Y454489D01*
X356597Y452149D01*
X358139Y450139D01*
X360149Y448597D01*
X362489Y447628D01*
X365000Y447297D01*
X367511Y447628D01*
X369851Y448597D01*
X371861Y450139D01*
X373403Y452149D01*
X373935Y453431D01*
X382922D01*
X395153Y441200D01*
X388477Y434523D01*
X387703Y433366D01*
X387431Y432000D01*
Y426898D01*
X386533Y426000D01*
X314329D01*
X314000Y426000D01*
X313059Y426794D01*
Y1036941D01*
X986941D01*
Y426794D01*
D02*
G37*
%LPC*%
G36*
X503730Y597080D02*
X502348Y596898D01*
X499876Y595875D01*
X497754Y594246D01*
X496125Y592124D01*
X495102Y589652D01*
X494920Y588270D01*
X503730D01*
Y597080D01*
D02*
G37*
G36*
X717470Y594859D02*
Y586170D01*
X726159D01*
X725982Y587521D01*
X724970Y589963D01*
X723361Y592061D01*
X721263Y593670D01*
X718821Y594682D01*
X717470Y594859D01*
D02*
G37*
G36*
X506270Y597080D02*
Y588270D01*
X515080D01*
X514898Y589652D01*
X513875Y592124D01*
X512246Y594246D01*
X510124Y595875D01*
X507652Y596898D01*
X506270Y597080D01*
D02*
G37*
G36*
X587930Y659830D02*
X579241D01*
X579418Y658479D01*
X580430Y656037D01*
X582039Y653939D01*
X584137Y652330D01*
X586579Y651318D01*
X587930Y651141D01*
Y659830D01*
D02*
G37*
G36*
X505000Y666703D02*
X502489Y666372D01*
X500149Y665403D01*
X498139Y663861D01*
X496597Y661852D01*
X495628Y659511D01*
X495297Y657000D01*
X495628Y654489D01*
X496597Y652149D01*
X498139Y650139D01*
X500149Y648597D01*
X502489Y647628D01*
X505000Y647297D01*
X507511Y647628D01*
X509851Y648597D01*
X511861Y650139D01*
X513403Y652149D01*
X514372Y654489D01*
X514703Y657000D01*
X514372Y659511D01*
X513403Y661852D01*
X511861Y663861D01*
X509851Y665403D01*
X507511Y666372D01*
X505000Y666703D01*
D02*
G37*
G36*
X714930Y594859D02*
X713579Y594682D01*
X711137Y593670D01*
X709039Y592061D01*
X707430Y589963D01*
X706418Y587521D01*
X706241Y586170D01*
X714930D01*
Y594859D01*
D02*
G37*
G36*
X726159Y583630D02*
X717470D01*
Y574941D01*
X718821Y575118D01*
X721263Y576130D01*
X723361Y577739D01*
X724970Y579837D01*
X725982Y582279D01*
X726159Y583630D01*
D02*
G37*
G36*
X714930D02*
X706241D01*
X706418Y582279D01*
X707430Y579837D01*
X709039Y577739D01*
X711137Y576130D01*
X713579Y575118D01*
X714930Y574941D01*
Y583630D01*
D02*
G37*
G36*
X410600Y718969D02*
X408512Y718694D01*
X406566Y717888D01*
X404894Y716606D01*
X403612Y714934D01*
X402806Y712988D01*
X402531Y710900D01*
Y697900D01*
X402806Y695812D01*
X403612Y693866D01*
X404894Y692194D01*
X406566Y690912D01*
X407031Y690719D01*
Y687400D01*
X407303Y686034D01*
X408077Y684877D01*
X418477Y674477D01*
X419634Y673703D01*
X421000Y673431D01*
X698822D01*
X707451Y664802D01*
X706945Y663580D01*
X706618Y661100D01*
X706945Y658620D01*
X707902Y656309D01*
X709425Y654324D01*
X711409Y652802D01*
X713720Y651844D01*
X716200Y651518D01*
X718680Y651844D01*
X719902Y652351D01*
X831977Y540277D01*
X833134Y539503D01*
X834500Y539231D01*
X921113D01*
X921828Y537505D01*
X923511Y535311D01*
X925705Y533628D01*
X928259Y532570D01*
X931000Y532209D01*
X933741Y532570D01*
X936295Y533628D01*
X938489Y535311D01*
X940172Y537505D01*
X941230Y540059D01*
X941590Y542800D01*
X941230Y545541D01*
X940172Y548095D01*
X938489Y550289D01*
X936295Y551972D01*
X933741Y553030D01*
X931000Y553391D01*
X928259Y553030D01*
X925705Y551972D01*
X923511Y550289D01*
X921828Y548095D01*
X921113Y546369D01*
X835978D01*
X724949Y657398D01*
X725455Y658620D01*
X725782Y661100D01*
X725455Y663580D01*
X724498Y665891D01*
X722975Y667875D01*
X720991Y669398D01*
X718680Y670356D01*
X716200Y670682D01*
X713720Y670356D01*
X712498Y669849D01*
X702823Y679523D01*
X701666Y680297D01*
X700300Y680569D01*
X422478D01*
X414169Y688878D01*
Y690719D01*
X414635Y690912D01*
X416306Y692194D01*
X417588Y693866D01*
X418394Y695812D01*
X418669Y697900D01*
Y710900D01*
X418394Y712988D01*
X417588Y714934D01*
X416306Y716606D01*
X414635Y717888D01*
X412688Y718694D01*
X410600Y718969D01*
D02*
G37*
G36*
X515080Y585730D02*
X506270D01*
Y576920D01*
X507652Y577102D01*
X510124Y578125D01*
X512246Y579754D01*
X513875Y581876D01*
X514898Y584348D01*
X515080Y585730D01*
D02*
G37*
G36*
X503730D02*
X494920D01*
X495102Y584348D01*
X496125Y581876D01*
X497754Y579754D01*
X499876Y578125D01*
X502348Y577102D01*
X503730Y576920D01*
Y585730D01*
D02*
G37*
G36*
X359800Y718969D02*
X357712Y718694D01*
X355765Y717888D01*
X354094Y716606D01*
X352812Y714934D01*
X352006Y712988D01*
X351731Y710900D01*
Y697900D01*
X352006Y695812D01*
X352812Y693866D01*
X354094Y692194D01*
X355765Y690912D01*
X356231Y690719D01*
Y662200D01*
X356503Y660834D01*
X357277Y659677D01*
X405477Y611477D01*
X406634Y610703D01*
X408000Y610431D01*
X609422D01*
X631251Y588602D01*
X630745Y587380D01*
X630418Y584900D01*
X630745Y582420D01*
X631702Y580109D01*
X633224Y578125D01*
X635209Y576602D01*
X636431Y576095D01*
Y564478D01*
X618322Y546369D01*
X604561D01*
X603846Y548095D01*
X602163Y550289D01*
X599969Y551972D01*
X597415Y553030D01*
X594674Y553391D01*
X591933Y553030D01*
X589379Y551972D01*
X587530Y550553D01*
X586429Y550811D01*
X586139Y551011D01*
X586073Y551327D01*
X610898Y576151D01*
X612120Y575644D01*
X614600Y575318D01*
X617080Y575644D01*
X619391Y576602D01*
X621375Y578125D01*
X622898Y580109D01*
X623855Y582420D01*
X624182Y584900D01*
X623855Y587380D01*
X622898Y589691D01*
X621375Y591675D01*
X619391Y593198D01*
X617080Y594156D01*
X614600Y594482D01*
X612120Y594156D01*
X609809Y593198D01*
X607825Y591675D01*
X606302Y589691D01*
X605345Y587380D01*
X605018Y584900D01*
X605345Y582420D01*
X605851Y581198D01*
X579477Y554823D01*
X578703Y553666D01*
X578431Y552300D01*
Y501000D01*
X578703Y499634D01*
X579477Y498477D01*
X591106Y486848D01*
Y451087D01*
X589379Y450372D01*
X587186Y448689D01*
X585503Y446495D01*
X584787Y444769D01*
X573678D01*
X558923Y459523D01*
X557766Y460297D01*
X556400Y460569D01*
X542097D01*
X541566Y461852D01*
X540024Y463861D01*
X538014Y465403D01*
X535674Y466372D01*
X533163Y466703D01*
X530652Y466372D01*
X528311Y465403D01*
X526302Y463861D01*
X524760Y461852D01*
X523791Y459511D01*
X523460Y457000D01*
X523791Y454489D01*
X524760Y452149D01*
X526302Y450139D01*
X528311Y448597D01*
X530652Y447628D01*
X533163Y447297D01*
X535674Y447628D01*
X538014Y448597D01*
X540024Y450139D01*
X541566Y452149D01*
X542097Y453431D01*
X554922D01*
X567153Y441200D01*
X561143Y435190D01*
X560370Y434032D01*
X560098Y432667D01*
Y426000D01*
X486667D01*
Y352000D01*
X640667D01*
Y426000D01*
X567235D01*
Y431189D01*
X573678Y437631D01*
X584787D01*
X585503Y435905D01*
X587186Y433711D01*
X589379Y432028D01*
X591933Y430970D01*
X594674Y430609D01*
X597415Y430970D01*
X599969Y432028D01*
X602163Y433711D01*
X603846Y435905D01*
X604904Y438459D01*
X605265Y441200D01*
X604904Y443941D01*
X603846Y446495D01*
X602163Y448689D01*
X599969Y450372D01*
X598243Y451087D01*
Y488326D01*
X597971Y489691D01*
X597198Y490849D01*
X585569Y502478D01*
Y535443D01*
X586771Y535851D01*
X587186Y535311D01*
X589379Y533628D01*
X591933Y532570D01*
X594674Y532209D01*
X597415Y532570D01*
X599969Y533628D01*
X602163Y535311D01*
X603846Y537505D01*
X604561Y539231D01*
X619800D01*
X621166Y539503D01*
X622323Y540277D01*
X642523Y560477D01*
X643297Y561634D01*
X643569Y563000D01*
Y576095D01*
X644791Y576602D01*
X646775Y578125D01*
X648298Y580109D01*
X649255Y582420D01*
X649582Y584900D01*
X649255Y587380D01*
X648298Y589691D01*
X646775Y591675D01*
X644791Y593198D01*
X642480Y594156D01*
X640000Y594482D01*
X637520Y594156D01*
X636298Y593649D01*
X613423Y616523D01*
X612266Y617297D01*
X610900Y617569D01*
X409478D01*
X363369Y663678D01*
Y690719D01*
X363834Y690912D01*
X365506Y692194D01*
X366788Y693866D01*
X367594Y695812D01*
X367869Y697900D01*
Y710900D01*
X367594Y712988D01*
X366788Y714934D01*
X365506Y716606D01*
X363834Y717888D01*
X361888Y718694D01*
X359800Y718969D01*
D02*
G37*
G36*
X599159Y659830D02*
X590470D01*
Y651141D01*
X591821Y651318D01*
X594263Y652330D01*
X596361Y653939D01*
X597970Y656037D01*
X598982Y658479D01*
X599159Y659830D01*
D02*
G37*
G36*
X641270Y671059D02*
Y662370D01*
X649959D01*
X649782Y663721D01*
X648770Y666163D01*
X647161Y668261D01*
X645063Y669870D01*
X642621Y670882D01*
X641270Y671059D01*
D02*
G37*
G36*
X638730D02*
X637379Y670882D01*
X634937Y669870D01*
X632839Y668261D01*
X631230Y666163D01*
X630218Y663721D01*
X630041Y662370D01*
X638730D01*
Y671059D01*
D02*
G37*
G36*
X590470D02*
Y662370D01*
X599159D01*
X598982Y663721D01*
X597970Y666163D01*
X596361Y668261D01*
X594263Y669870D01*
X591821Y670882D01*
X590470Y671059D01*
D02*
G37*
G36*
X486800Y718969D02*
X484712Y718694D01*
X482766Y717888D01*
X481094Y716606D01*
X479812Y714934D01*
X479006Y712988D01*
X478731Y710900D01*
Y697900D01*
X479006Y695812D01*
X479812Y693866D01*
X481094Y692194D01*
X482766Y690912D01*
X484712Y690106D01*
X486800Y689831D01*
X488888Y690106D01*
X490835Y690912D01*
X492506Y692194D01*
X493788Y693866D01*
X494594Y695812D01*
X494869Y697900D01*
Y710900D01*
X494594Y712988D01*
X493788Y714934D01*
X492506Y716606D01*
X490835Y717888D01*
X488888Y718694D01*
X486800Y718969D01*
D02*
G37*
G36*
X461400D02*
X459312Y718694D01*
X457365Y717888D01*
X455694Y716606D01*
X454412Y714934D01*
X453606Y712988D01*
X453331Y710900D01*
Y697900D01*
X453606Y695812D01*
X454412Y693866D01*
X455694Y692194D01*
X457365Y690912D01*
X459312Y690106D01*
X461400Y689831D01*
X463488Y690106D01*
X465434Y690912D01*
X467106Y692194D01*
X468388Y693866D01*
X469194Y695812D01*
X469469Y697900D01*
Y710900D01*
X469194Y712988D01*
X468388Y714934D01*
X467106Y716606D01*
X465434Y717888D01*
X463488Y718694D01*
X461400Y718969D01*
D02*
G37*
G36*
X436000D02*
X433912Y718694D01*
X431965Y717888D01*
X430294Y716606D01*
X429012Y714934D01*
X428206Y712988D01*
X427931Y710900D01*
Y697900D01*
X428206Y695812D01*
X429012Y693866D01*
X430294Y692194D01*
X431965Y690912D01*
X433912Y690106D01*
X436000Y689831D01*
X438088Y690106D01*
X440034Y690912D01*
X441706Y692194D01*
X442988Y693866D01*
X443794Y695812D01*
X444069Y697900D01*
Y710900D01*
X443794Y712988D01*
X442988Y714934D01*
X441706Y716606D01*
X440034Y717888D01*
X438088Y718694D01*
X436000Y718969D01*
D02*
G37*
G36*
X563800Y670682D02*
X561320Y670356D01*
X559009Y669398D01*
X557024Y667875D01*
X555502Y665891D01*
X554544Y663580D01*
X554218Y661100D01*
X554544Y658620D01*
X555502Y656309D01*
X557024Y654324D01*
X559009Y652802D01*
X561320Y651844D01*
X563800Y651518D01*
X566280Y651844D01*
X568591Y652802D01*
X570575Y654324D01*
X572098Y656309D01*
X573055Y658620D01*
X573382Y661100D01*
X573055Y663580D01*
X572098Y665891D01*
X570575Y667875D01*
X568591Y669398D01*
X566280Y670356D01*
X563800Y670682D01*
D02*
G37*
G36*
X649959Y659830D02*
X641270D01*
Y651141D01*
X642621Y651318D01*
X645063Y652330D01*
X647161Y653939D01*
X648770Y656037D01*
X649782Y658479D01*
X649959Y659830D01*
D02*
G37*
G36*
X638730D02*
X630041D01*
X630218Y658479D01*
X631230Y656037D01*
X632839Y653939D01*
X634937Y652330D01*
X637379Y651318D01*
X638730Y651141D01*
Y659830D01*
D02*
G37*
G36*
X587930Y671059D02*
X586579Y670882D01*
X584137Y669870D01*
X582039Y668261D01*
X580430Y666163D01*
X579418Y663721D01*
X579241Y662370D01*
X587930D01*
Y671059D01*
D02*
G37*
G36*
X665400Y670682D02*
X662920Y670356D01*
X660609Y669398D01*
X658624Y667875D01*
X657102Y665891D01*
X656144Y663580D01*
X655818Y661100D01*
X656144Y658620D01*
X657102Y656309D01*
X658624Y654324D01*
X660609Y652802D01*
X662920Y651844D01*
X665400Y651518D01*
X667880Y651844D01*
X670191Y652802D01*
X672175Y654324D01*
X673698Y656309D01*
X674655Y658620D01*
X674982Y661100D01*
X674655Y663580D01*
X673698Y665891D01*
X672175Y667875D01*
X670191Y669398D01*
X667880Y670356D01*
X665400Y670682D01*
D02*
G37*
G36*
X614600D02*
X612120Y670356D01*
X609809Y669398D01*
X607825Y667875D01*
X606302Y665891D01*
X605345Y663580D01*
X605018Y661100D01*
X605345Y658620D01*
X606302Y656309D01*
X607825Y654324D01*
X609809Y652802D01*
X612120Y651844D01*
X614600Y651518D01*
X617080Y651844D01*
X619391Y652802D01*
X621375Y654324D01*
X622898Y656309D01*
X623855Y658620D01*
X624182Y661100D01*
X623855Y663580D01*
X622898Y665891D01*
X621375Y667875D01*
X619391Y669398D01*
X617080Y670356D01*
X614600Y670682D01*
D02*
G37*
G36*
X385200Y718969D02*
X383112Y718694D01*
X381166Y717888D01*
X379494Y716606D01*
X378212Y714934D01*
X377406Y712988D01*
X377131Y710900D01*
Y697900D01*
X377406Y695812D01*
X378212Y693866D01*
X379494Y692194D01*
X381166Y690912D01*
X381631Y690719D01*
Y680800D01*
X381903Y679434D01*
X382677Y678277D01*
X426477Y634477D01*
X427634Y633703D01*
X429000Y633431D01*
X637222D01*
X682051Y588602D01*
X681544Y587380D01*
X681218Y584900D01*
X681544Y582420D01*
X682502Y580109D01*
X684025Y578125D01*
X686009Y576602D01*
X687231Y576095D01*
Y561200D01*
X687503Y559834D01*
X688277Y558677D01*
X708677Y538277D01*
X709834Y537503D01*
X710276Y537415D01*
X710406Y536094D01*
X709876Y535875D01*
X707754Y534246D01*
X706125Y532124D01*
X705101Y529652D01*
X704920Y528270D01*
X725080D01*
X724899Y529652D01*
X723875Y532124D01*
X722246Y534246D01*
X720124Y535875D01*
X719915Y535961D01*
X720167Y537231D01*
X766038D01*
X767511Y535311D01*
X769705Y533628D01*
X772259Y532570D01*
X775000Y532209D01*
X777741Y532570D01*
X780295Y533628D01*
X782489Y535311D01*
X784172Y537505D01*
X785230Y540059D01*
X785591Y542800D01*
X785230Y545541D01*
X784172Y548095D01*
X782489Y550289D01*
X780295Y551972D01*
X777741Y553030D01*
X775000Y553391D01*
X772259Y553030D01*
X769705Y551972D01*
X767511Y550289D01*
X765828Y548095D01*
X764770Y545541D01*
X764616Y544369D01*
X712678D01*
X694369Y562678D01*
Y576095D01*
X695591Y576602D01*
X697575Y578125D01*
X699098Y580109D01*
X700055Y582420D01*
X700382Y584900D01*
X700055Y587380D01*
X699098Y589691D01*
X697575Y591675D01*
X695591Y593198D01*
X693280Y594156D01*
X690800Y594482D01*
X688320Y594156D01*
X687098Y593649D01*
X641223Y639523D01*
X640066Y640297D01*
X638700Y640569D01*
X430478D01*
X388769Y682278D01*
Y690719D01*
X389235Y690912D01*
X390906Y692194D01*
X392188Y693866D01*
X392994Y695812D01*
X393269Y697900D01*
Y710900D01*
X392994Y712988D01*
X392188Y714934D01*
X390906Y716606D01*
X389235Y717888D01*
X387288Y718694D01*
X385200Y718969D01*
D02*
G37*
G36*
X907730Y346540D02*
X831460D01*
Y310270D01*
X907730D01*
Y346540D01*
D02*
G37*
G36*
X813873Y346540D02*
X737603D01*
Y310270D01*
X813873D01*
Y346540D01*
D02*
G37*
G36*
X562397D02*
X486127D01*
Y310270D01*
X562397D01*
Y346540D01*
D02*
G37*
G36*
X363730Y525730D02*
X354920D01*
X355102Y524348D01*
X356125Y521876D01*
X357754Y519754D01*
X359876Y518125D01*
X362348Y517102D01*
X363730Y516920D01*
Y525730D01*
D02*
G37*
G36*
X665400Y594482D02*
X662920Y594156D01*
X660609Y593198D01*
X658624Y591675D01*
X657102Y589691D01*
X656144Y587380D01*
X655818Y584900D01*
X656144Y582420D01*
X657102Y580109D01*
X658624Y578125D01*
X660609Y576602D01*
X661831Y576095D01*
Y503926D01*
X662103Y502560D01*
X662877Y501402D01*
X705528Y458751D01*
X705297Y457000D01*
X705628Y454489D01*
X706597Y452149D01*
X708139Y450139D01*
X710148Y448597D01*
X712489Y447628D01*
X715000Y447297D01*
X716751Y447528D01*
X732765Y431514D01*
Y426000D01*
X659333D01*
Y352000D01*
X813333D01*
Y426000D01*
X739902D01*
Y431514D01*
X744019Y435631D01*
X766038D01*
X767511Y433711D01*
X769705Y432028D01*
X772259Y430970D01*
X775000Y430609D01*
X777741Y430970D01*
X780295Y432028D01*
X782489Y433711D01*
X784172Y435905D01*
X785230Y438459D01*
X785591Y441200D01*
X785230Y443941D01*
X784172Y446495D01*
X782489Y448689D01*
X780295Y450372D01*
X777741Y451430D01*
X775000Y451791D01*
X772259Y451430D01*
X769705Y450372D01*
X767511Y448689D01*
X765828Y446495D01*
X764770Y443941D01*
X764616Y442769D01*
X742541D01*
X741175Y442497D01*
X740018Y441723D01*
X736333Y438039D01*
X722891Y451481D01*
X723403Y452149D01*
X724372Y454489D01*
X724703Y457000D01*
X724372Y459511D01*
X723403Y461852D01*
X721861Y463861D01*
X719852Y465403D01*
X717511Y466372D01*
X715000Y466703D01*
X712489Y466372D01*
X710148Y465403D01*
X709481Y464891D01*
X668969Y505404D01*
Y576095D01*
X670191Y576602D01*
X672175Y578125D01*
X673698Y580109D01*
X674655Y582420D01*
X674982Y584900D01*
X674655Y587380D01*
X673698Y589691D01*
X672175Y591675D01*
X670191Y593198D01*
X667880Y594156D01*
X665400Y594482D01*
D02*
G37*
G36*
X735063Y346540D02*
X658793D01*
Y315298D01*
X657523Y314867D01*
X656804Y315804D01*
X654811Y317333D01*
X652490Y318294D01*
X651270Y318455D01*
Y309000D01*
Y299545D01*
X652490Y299706D01*
X654811Y300667D01*
X656804Y302196D01*
X657523Y303133D01*
X658793Y302702D01*
Y271460D01*
X735063D01*
Y309000D01*
Y346540D01*
D02*
G37*
G36*
X813873Y307730D02*
X737603D01*
Y271460D01*
X813873D01*
Y307730D01*
D02*
G37*
G36*
X562397D02*
X486127D01*
Y271460D01*
X562397D01*
Y307730D01*
D02*
G37*
G36*
X468540D02*
X392270D01*
Y271460D01*
X468540D01*
Y307730D01*
D02*
G37*
G36*
X392270Y346540D02*
Y310270D01*
X468540D01*
Y346540D01*
X392270D01*
D02*
G37*
G36*
X641207D02*
X564937D01*
Y309000D01*
Y271460D01*
X641207D01*
Y302702D01*
X642477Y303133D01*
X643196Y302196D01*
X645189Y300667D01*
X647510Y299706D01*
X648730Y299545D01*
Y309000D01*
Y318455D01*
X647510Y318294D01*
X645189Y317333D01*
X643196Y315804D01*
X642477Y314867D01*
X641207Y315298D01*
Y346540D01*
D02*
G37*
G36*
X907730Y307730D02*
X831460D01*
Y271460D01*
X907730D01*
Y307730D01*
D02*
G37*
G36*
X375080Y525730D02*
X366270D01*
Y516920D01*
X367652Y517102D01*
X370124Y518125D01*
X372246Y519754D01*
X373875Y521876D01*
X374898Y524348D01*
X375080Y525730D01*
D02*
G37*
G36*
X531893Y537080D02*
X530510Y536898D01*
X528039Y535875D01*
X525917Y534246D01*
X524288Y532124D01*
X523264Y529652D01*
X523082Y528270D01*
X531893D01*
Y537080D01*
D02*
G37*
G36*
X366270D02*
Y528270D01*
X375080D01*
X374898Y529652D01*
X373875Y532124D01*
X372246Y534246D01*
X370124Y535875D01*
X367652Y536898D01*
X366270Y537080D01*
D02*
G37*
G36*
X363730D02*
X362348Y536898D01*
X359876Y535875D01*
X357754Y534246D01*
X356125Y532124D01*
X355102Y529652D01*
X354920Y528270D01*
X363730D01*
Y537080D01*
D02*
G37*
G36*
X870759D02*
Y528270D01*
X879569D01*
X879387Y529652D01*
X878363Y532124D01*
X876735Y534246D01*
X874612Y535875D01*
X872141Y536898D01*
X870759Y537080D01*
D02*
G37*
G36*
X868219D02*
X866836Y536898D01*
X864365Y535875D01*
X862242Y534246D01*
X860614Y532124D01*
X859590Y529652D01*
X859408Y528270D01*
X868219D01*
Y537080D01*
D02*
G37*
G36*
X534433D02*
Y528270D01*
X543243D01*
X543061Y529652D01*
X542038Y532124D01*
X540409Y534246D01*
X538287Y535875D01*
X535815Y536898D01*
X534433Y537080D01*
D02*
G37*
G36*
X713730Y525730D02*
X704920D01*
X705101Y524348D01*
X706125Y521876D01*
X707754Y519754D01*
X709876Y518125D01*
X712348Y517102D01*
X713730Y516920D01*
Y525730D01*
D02*
G37*
G36*
X543243D02*
X534433D01*
Y516920D01*
X535815Y517102D01*
X538287Y518125D01*
X540409Y519754D01*
X542038Y521876D01*
X543061Y524348D01*
X543243Y525730D01*
D02*
G37*
G36*
X531893D02*
X523082D01*
X523264Y524348D01*
X524288Y521876D01*
X525917Y519754D01*
X528039Y518125D01*
X530510Y517102D01*
X531893Y516920D01*
Y525730D01*
D02*
G37*
G36*
X879569D02*
X870759D01*
Y516920D01*
X872141Y517102D01*
X874612Y518125D01*
X876735Y519754D01*
X878363Y521876D01*
X879387Y524348D01*
X879569Y525730D01*
D02*
G37*
G36*
X868219D02*
X859408D01*
X859590Y524348D01*
X860614Y521876D01*
X862242Y519754D01*
X864365Y518125D01*
X866836Y517102D01*
X868219Y516920D01*
Y525730D01*
D02*
G37*
G36*
X725080D02*
X716270D01*
Y516920D01*
X717652Y517102D01*
X720124Y518125D01*
X722246Y519754D01*
X723875Y521876D01*
X724899Y524348D01*
X725080Y525730D01*
D02*
G37*
G36*
X512200Y718969D02*
X510112Y718694D01*
X508166Y717888D01*
X506494Y716606D01*
X505212Y714934D01*
X504406Y712988D01*
X504131Y710900D01*
Y697900D01*
X504406Y695812D01*
X505212Y693866D01*
X506494Y692194D01*
X508166Y690912D01*
X510112Y690106D01*
X512200Y689831D01*
X514288Y690106D01*
X516235Y690912D01*
X517906Y692194D01*
X519188Y693866D01*
X519994Y695812D01*
X520269Y697900D01*
Y710900D01*
X519994Y712988D01*
X519188Y714934D01*
X517906Y716606D01*
X516235Y717888D01*
X514288Y718694D01*
X512200Y718969D01*
D02*
G37*
G36*
X694500Y1025095D02*
X691628Y1024717D01*
X688952Y1023608D01*
X686655Y1021845D01*
X684892Y1019548D01*
X683783Y1016872D01*
X683405Y1014000D01*
X683783Y1011128D01*
X684892Y1008453D01*
X686655Y1006155D01*
X688952Y1004391D01*
X691628Y1003283D01*
X694500Y1002905D01*
X697372Y1003283D01*
X700048Y1004391D01*
X702345Y1006155D01*
X704109Y1008453D01*
X705217Y1011128D01*
X705595Y1014000D01*
X705217Y1016872D01*
X704109Y1019548D01*
X702345Y1021845D01*
X700048Y1023608D01*
X697372Y1024717D01*
X694500Y1025095D01*
D02*
G37*
G36*
X680572Y1012730D02*
X670370D01*
Y1002528D01*
X672113Y1002757D01*
X674920Y1003920D01*
X677330Y1005770D01*
X679180Y1008180D01*
X680343Y1010987D01*
X680572Y1012730D01*
D02*
G37*
G36*
X667830D02*
X657628D01*
X657857Y1010987D01*
X659020Y1008180D01*
X660870Y1005770D01*
X663280Y1003920D01*
X666087Y1002757D01*
X667830Y1002528D01*
Y1012730D01*
D02*
G37*
G36*
X563030Y1018730D02*
X554010D01*
Y1009710D01*
X563030D01*
Y1018730D01*
D02*
G37*
G36*
X821500Y1025095D02*
X818628Y1024717D01*
X815953Y1023608D01*
X813655Y1021845D01*
X811891Y1019548D01*
X810783Y1016872D01*
X810405Y1014000D01*
X810783Y1011128D01*
X811603Y1009149D01*
X777022Y974569D01*
X763375D01*
X762889Y975742D01*
X791249Y1004103D01*
X793228Y1003283D01*
X796100Y1002905D01*
X798972Y1003283D01*
X801647Y1004391D01*
X803945Y1006155D01*
X805708Y1008453D01*
X806817Y1011128D01*
X807195Y1014000D01*
X806817Y1016872D01*
X805708Y1019548D01*
X803945Y1021845D01*
X801647Y1023608D01*
X798972Y1024717D01*
X796100Y1025095D01*
X793228Y1024717D01*
X790553Y1023608D01*
X788255Y1021845D01*
X786491Y1019548D01*
X785383Y1016872D01*
X785005Y1014000D01*
X785383Y1011128D01*
X786203Y1009149D01*
X757622Y980569D01*
X743975D01*
X743489Y981742D01*
X765850Y1004103D01*
X767828Y1003283D01*
X770700Y1002905D01*
X773572Y1003283D01*
X776247Y1004391D01*
X778545Y1006155D01*
X780309Y1008453D01*
X781417Y1011128D01*
X781795Y1014000D01*
X781417Y1016872D01*
X780309Y1019548D01*
X778545Y1021845D01*
X776247Y1023608D01*
X773572Y1024717D01*
X770700Y1025095D01*
X767828Y1024717D01*
X765153Y1023608D01*
X762855Y1021845D01*
X761092Y1019548D01*
X759983Y1016872D01*
X759605Y1014000D01*
X759983Y1011128D01*
X760803Y1009149D01*
X737222Y985569D01*
X723575D01*
X723089Y986742D01*
X740450Y1004103D01*
X742428Y1003283D01*
X745300Y1002905D01*
X748172Y1003283D01*
X750847Y1004391D01*
X753145Y1006155D01*
X754909Y1008453D01*
X756017Y1011128D01*
X756395Y1014000D01*
X756017Y1016872D01*
X754909Y1019548D01*
X753145Y1021845D01*
X750847Y1023608D01*
X748172Y1024717D01*
X745300Y1025095D01*
X742428Y1024717D01*
X739753Y1023608D01*
X737455Y1021845D01*
X735692Y1019548D01*
X734583Y1016872D01*
X734205Y1014000D01*
X734583Y1011128D01*
X735403Y1009149D01*
X717822Y991569D01*
X623000D01*
X621634Y991297D01*
X620477Y990523D01*
X585877Y955923D01*
X585103Y954766D01*
X584831Y953400D01*
Y946681D01*
X584366Y946488D01*
X582694Y945206D01*
X581412Y943534D01*
X580606Y941588D01*
X580331Y939500D01*
Y926500D01*
X580606Y924412D01*
X581412Y922466D01*
X582694Y920794D01*
X584366Y919512D01*
X586312Y918706D01*
X588400Y918431D01*
X590488Y918706D01*
X592435Y919512D01*
X594106Y920794D01*
X595388Y922466D01*
X596194Y924412D01*
X596469Y926500D01*
Y939500D01*
X596194Y941588D01*
X595388Y943534D01*
X594106Y945206D01*
X592435Y946488D01*
X591969Y946681D01*
Y951922D01*
X624478Y984431D01*
X640725D01*
X641211Y983258D01*
X611277Y953323D01*
X610503Y952166D01*
X610231Y950800D01*
Y946681D01*
X609766Y946488D01*
X608094Y945206D01*
X606812Y943534D01*
X606006Y941588D01*
X605731Y939500D01*
Y926500D01*
X606006Y924412D01*
X606812Y922466D01*
X608094Y920794D01*
X609766Y919512D01*
X611712Y918706D01*
X613800Y918431D01*
X615888Y918706D01*
X617835Y919512D01*
X619506Y920794D01*
X620788Y922466D01*
X621594Y924412D01*
X621869Y926500D01*
Y939500D01*
X621594Y941588D01*
X620788Y943534D01*
X619506Y945206D01*
X617835Y946488D01*
X617369Y946681D01*
Y949322D01*
X646478Y978431D01*
X661725D01*
X662211Y977258D01*
X636677Y951723D01*
X635903Y950566D01*
X635631Y949200D01*
Y946681D01*
X635165Y946488D01*
X633494Y945206D01*
X632212Y943534D01*
X631406Y941588D01*
X631131Y939500D01*
Y926500D01*
X631406Y924412D01*
X632212Y922466D01*
X633494Y920794D01*
X635165Y919512D01*
X637112Y918706D01*
X639200Y918431D01*
X641288Y918706D01*
X643234Y919512D01*
X644906Y920794D01*
X646188Y922466D01*
X646994Y924412D01*
X647269Y926500D01*
Y939500D01*
X646994Y941588D01*
X646188Y943534D01*
X644906Y945206D01*
X643234Y946488D01*
X643045Y946566D01*
X642901Y947854D01*
X668478Y973431D01*
X678725D01*
X679211Y972258D01*
X662077Y955123D01*
X661303Y953966D01*
X661031Y952600D01*
Y946681D01*
X660565Y946488D01*
X658894Y945206D01*
X657612Y943534D01*
X656806Y941588D01*
X656531Y939500D01*
Y926500D01*
X656806Y924412D01*
X657612Y922466D01*
X658894Y920794D01*
X660565Y919512D01*
X662512Y918706D01*
X664600Y918431D01*
X666688Y918706D01*
X668634Y919512D01*
X670306Y920794D01*
X671588Y922466D01*
X672394Y924412D01*
X672669Y926500D01*
Y939500D01*
X672394Y941588D01*
X671588Y943534D01*
X670306Y945206D01*
X668634Y946488D01*
X668169Y946681D01*
Y951122D01*
X684478Y967431D01*
X724725D01*
X725211Y966258D01*
X712877Y953923D01*
X712103Y952766D01*
X711831Y951400D01*
Y946681D01*
X711366Y946488D01*
X709694Y945206D01*
X708412Y943534D01*
X707606Y941588D01*
X707331Y939500D01*
Y926500D01*
X707606Y924412D01*
X708412Y922466D01*
X709694Y920794D01*
X711366Y919512D01*
X713312Y918706D01*
X715400Y918431D01*
X717488Y918706D01*
X719435Y919512D01*
X721106Y920794D01*
X722388Y922466D01*
X723194Y924412D01*
X723469Y926500D01*
Y939500D01*
X723194Y941588D01*
X722388Y943534D01*
X721106Y945206D01*
X719435Y946488D01*
X718969Y946681D01*
Y949922D01*
X731478Y962431D01*
X813000D01*
X814366Y962703D01*
X815523Y963477D01*
X849423Y997377D01*
X850197Y998534D01*
X850469Y999900D01*
Y1003000D01*
X857900D01*
Y1025000D01*
X835900D01*
Y1003000D01*
X843331D01*
Y1001378D01*
X811522Y969569D01*
X783775D01*
X783289Y970742D01*
X816649Y1004103D01*
X818628Y1003283D01*
X821500Y1002905D01*
X824372Y1003283D01*
X827048Y1004391D01*
X829345Y1006155D01*
X831108Y1008453D01*
X832217Y1011128D01*
X832595Y1014000D01*
X832217Y1016872D01*
X831108Y1019548D01*
X829345Y1021845D01*
X827048Y1023608D01*
X824372Y1024717D01*
X821500Y1025095D01*
D02*
G37*
G36*
X719900D02*
X717028Y1024717D01*
X714352Y1023608D01*
X712055Y1021845D01*
X710292Y1019548D01*
X709183Y1016872D01*
X708805Y1014000D01*
X709183Y1011128D01*
X710292Y1008453D01*
X712055Y1006155D01*
X714352Y1004391D01*
X717028Y1003283D01*
X719900Y1002905D01*
X722772Y1003283D01*
X725447Y1004391D01*
X727745Y1006155D01*
X729509Y1008453D01*
X730617Y1011128D01*
X730995Y1014000D01*
X730617Y1016872D01*
X729509Y1019548D01*
X727745Y1021845D01*
X725447Y1023608D01*
X722772Y1024717D01*
X719900Y1025095D01*
D02*
G37*
G36*
X566270Y986080D02*
Y977270D01*
X575080D01*
X574898Y978652D01*
X573875Y981124D01*
X572246Y983246D01*
X570124Y984875D01*
X567652Y985899D01*
X566270Y986080D01*
D02*
G37*
G36*
X563730Y974730D02*
X554920D01*
X555102Y973348D01*
X556125Y970876D01*
X557754Y968754D01*
X559876Y967125D01*
X562348Y966102D01*
X563730Y965919D01*
Y974730D01*
D02*
G37*
G36*
X825540Y948040D02*
X818270D01*
Y934270D01*
X825540D01*
Y948040D01*
D02*
G37*
G36*
X815730D02*
X808460D01*
Y934270D01*
X815730D01*
Y948040D01*
D02*
G37*
G36*
X563730Y986080D02*
X562348Y985899D01*
X559876Y984875D01*
X557754Y983246D01*
X556125Y981124D01*
X555102Y978652D01*
X554920Y977270D01*
X563730D01*
Y986080D01*
D02*
G37*
G36*
X495000Y985703D02*
X492489Y985372D01*
X490149Y984403D01*
X488139Y982861D01*
X486597Y980852D01*
X485628Y978511D01*
X485297Y976000D01*
X485628Y973489D01*
X486597Y971149D01*
X488139Y969139D01*
X490149Y967597D01*
X492489Y966628D01*
X495000Y966297D01*
X497511Y966628D01*
X499851Y967597D01*
X501861Y969139D01*
X503403Y971149D01*
X504372Y973489D01*
X504703Y976000D01*
X504372Y978511D01*
X503403Y980852D01*
X501861Y982861D01*
X499851Y984403D01*
X497511Y985372D01*
X495000Y985703D01*
D02*
G37*
G36*
X575080Y974730D02*
X566270D01*
Y965919D01*
X567652Y966102D01*
X570124Y967125D01*
X572246Y968754D01*
X573875Y970876D01*
X574898Y973348D01*
X575080Y974730D01*
D02*
G37*
G36*
X667830Y1025472D02*
X666087Y1025243D01*
X663280Y1024080D01*
X660870Y1022230D01*
X659020Y1019820D01*
X657857Y1017012D01*
X657628Y1015270D01*
X667830D01*
Y1025472D01*
D02*
G37*
G36*
X513500Y1029834D02*
X510955Y1029499D01*
X508583Y1028517D01*
X506546Y1026954D01*
X504983Y1024917D01*
X504001Y1022545D01*
X503666Y1020000D01*
X504001Y1017455D01*
X504560Y1016106D01*
X477477Y989023D01*
X476703Y987866D01*
X476431Y986500D01*
Y966000D01*
X476703Y964634D01*
X477477Y963477D01*
X483231Y957722D01*
Y946681D01*
X482766Y946488D01*
X481094Y945206D01*
X479812Y943534D01*
X479006Y941588D01*
X478731Y939500D01*
Y926500D01*
X479006Y924412D01*
X479812Y922466D01*
X481094Y920794D01*
X482766Y919512D01*
X484712Y918706D01*
X486800Y918431D01*
X488888Y918706D01*
X490835Y919512D01*
X492506Y920794D01*
X493788Y922466D01*
X494594Y924412D01*
X494869Y926500D01*
Y939500D01*
X494594Y941588D01*
X493788Y943534D01*
X492506Y945206D01*
X490835Y946488D01*
X490369Y946681D01*
Y959200D01*
X490097Y960566D01*
X489323Y961723D01*
X483569Y967478D01*
Y985022D01*
X509606Y1011059D01*
X510955Y1010501D01*
X513500Y1010166D01*
X516045Y1010501D01*
X518417Y1011483D01*
X520454Y1013046D01*
X522017Y1015083D01*
X522999Y1017455D01*
X523334Y1020000D01*
X522999Y1022545D01*
X522017Y1024917D01*
X520454Y1026954D01*
X518417Y1028517D01*
X516045Y1029499D01*
X513500Y1029834D01*
D02*
G37*
G36*
X488100D02*
X485555Y1029499D01*
X483183Y1028517D01*
X481146Y1026954D01*
X479583Y1024917D01*
X478601Y1022545D01*
X478266Y1020000D01*
X478601Y1017455D01*
X479160Y1016106D01*
X458877Y995823D01*
X458103Y994666D01*
X457831Y993300D01*
Y946681D01*
X457365Y946488D01*
X455694Y945206D01*
X454412Y943534D01*
X453606Y941588D01*
X453331Y939500D01*
Y926500D01*
X453606Y924412D01*
X454412Y922466D01*
X455694Y920794D01*
X457365Y919512D01*
X459312Y918706D01*
X461400Y918431D01*
X463488Y918706D01*
X465434Y919512D01*
X467106Y920794D01*
X468388Y922466D01*
X469194Y924412D01*
X469469Y926500D01*
Y939500D01*
X469194Y941588D01*
X468388Y943534D01*
X467106Y945206D01*
X465434Y946488D01*
X464969Y946681D01*
Y991822D01*
X484206Y1011059D01*
X485555Y1010501D01*
X488100Y1010166D01*
X490645Y1010501D01*
X493017Y1011483D01*
X495054Y1013046D01*
X496617Y1015083D01*
X497599Y1017455D01*
X497934Y1020000D01*
X497599Y1022545D01*
X496617Y1024917D01*
X495054Y1026954D01*
X493017Y1028517D01*
X490645Y1029499D01*
X488100Y1029834D01*
D02*
G37*
G36*
X574590Y1030290D02*
X565570D01*
Y1021270D01*
X574590D01*
Y1030290D01*
D02*
G37*
G36*
X563030D02*
X554010D01*
Y1021270D01*
X563030D01*
Y1030290D01*
D02*
G37*
G36*
X670370Y1025472D02*
Y1015270D01*
X680572D01*
X680343Y1017012D01*
X679180Y1019820D01*
X677330Y1022230D01*
X674920Y1024080D01*
X672113Y1025243D01*
X670370Y1025472D01*
D02*
G37*
G36*
X462700Y1029834D02*
X460155Y1029499D01*
X457783Y1028517D01*
X455746Y1026954D01*
X454183Y1024917D01*
X453201Y1022545D01*
X452866Y1020000D01*
X453201Y1017455D01*
X453759Y1016106D01*
X433477Y995823D01*
X432703Y994666D01*
X432431Y993300D01*
Y946681D01*
X431965Y946488D01*
X430294Y945206D01*
X429012Y943534D01*
X428206Y941588D01*
X427931Y939500D01*
Y926500D01*
X428206Y924412D01*
X429012Y922466D01*
X430294Y920794D01*
X431965Y919512D01*
X433912Y918706D01*
X436000Y918431D01*
X438088Y918706D01*
X440034Y919512D01*
X441706Y920794D01*
X442988Y922466D01*
X443794Y924412D01*
X444069Y926500D01*
Y939500D01*
X443794Y941588D01*
X442988Y943534D01*
X441706Y945206D01*
X440034Y946488D01*
X439569Y946681D01*
Y991822D01*
X458806Y1011059D01*
X460155Y1010501D01*
X462700Y1010166D01*
X465245Y1010501D01*
X467617Y1011483D01*
X469654Y1013046D01*
X471217Y1015083D01*
X472199Y1017455D01*
X472534Y1020000D01*
X472199Y1022545D01*
X471217Y1024917D01*
X469654Y1026954D01*
X467617Y1028517D01*
X465245Y1029499D01*
X462700Y1029834D01*
D02*
G37*
G36*
X361100D02*
X358555Y1029499D01*
X356183Y1028517D01*
X354146Y1026954D01*
X352583Y1024917D01*
X351601Y1022545D01*
X351266Y1020000D01*
X351601Y1017455D01*
X352160Y1016106D01*
X331877Y995823D01*
X331103Y994666D01*
X330831Y993300D01*
Y946681D01*
X330365Y946488D01*
X328694Y945206D01*
X327412Y943534D01*
X326606Y941588D01*
X326331Y939500D01*
Y926500D01*
X326606Y924412D01*
X327412Y922466D01*
X328694Y920794D01*
X330365Y919512D01*
X332312Y918706D01*
X334400Y918431D01*
X336488Y918706D01*
X338434Y919512D01*
X340106Y920794D01*
X341388Y922466D01*
X342194Y924412D01*
X342469Y926500D01*
Y939500D01*
X342194Y941588D01*
X341388Y943534D01*
X340106Y945206D01*
X338434Y946488D01*
X337969Y946681D01*
Y991822D01*
X357206Y1011059D01*
X358555Y1010501D01*
X361100Y1010166D01*
X363645Y1010501D01*
X366017Y1011483D01*
X368054Y1013046D01*
X369617Y1015083D01*
X370599Y1017455D01*
X370934Y1020000D01*
X370599Y1022545D01*
X369617Y1024917D01*
X368054Y1026954D01*
X366017Y1028517D01*
X363645Y1029499D01*
X361100Y1029834D01*
D02*
G37*
G36*
X335700D02*
X333155Y1029499D01*
X330783Y1028517D01*
X328746Y1026954D01*
X327183Y1024917D01*
X326201Y1022545D01*
X325866Y1020000D01*
X326201Y1017455D01*
X327183Y1015083D01*
X328746Y1013046D01*
X330783Y1011483D01*
X333155Y1010501D01*
X335700Y1010166D01*
X338245Y1010501D01*
X340617Y1011483D01*
X342654Y1013046D01*
X344217Y1015083D01*
X345199Y1017455D01*
X345534Y1020000D01*
X345199Y1022545D01*
X344217Y1024917D01*
X342654Y1026954D01*
X340617Y1028517D01*
X338245Y1029499D01*
X335700Y1029834D01*
D02*
G37*
G36*
X574590Y1018730D02*
X565570D01*
Y1009710D01*
X574590D01*
Y1018730D01*
D02*
G37*
G36*
X437300Y1029834D02*
X434755Y1029499D01*
X432383Y1028517D01*
X430346Y1026954D01*
X428783Y1024917D01*
X427801Y1022545D01*
X427466Y1020000D01*
X427801Y1017455D01*
X428359Y1016106D01*
X408077Y995823D01*
X407303Y994666D01*
X407031Y993300D01*
Y946681D01*
X406566Y946488D01*
X404894Y945206D01*
X403612Y943534D01*
X402806Y941588D01*
X402531Y939500D01*
Y926500D01*
X402806Y924412D01*
X403612Y922466D01*
X404894Y920794D01*
X406566Y919512D01*
X408512Y918706D01*
X410600Y918431D01*
X412688Y918706D01*
X414635Y919512D01*
X416306Y920794D01*
X417588Y922466D01*
X418394Y924412D01*
X418669Y926500D01*
Y939500D01*
X418394Y941588D01*
X417588Y943534D01*
X416306Y945206D01*
X414635Y946488D01*
X414169Y946681D01*
Y991822D01*
X433406Y1011059D01*
X434755Y1010501D01*
X437300Y1010166D01*
X439845Y1010501D01*
X442217Y1011483D01*
X444254Y1013046D01*
X445817Y1015083D01*
X446799Y1017455D01*
X447134Y1020000D01*
X446799Y1022545D01*
X445817Y1024917D01*
X444254Y1026954D01*
X442217Y1028517D01*
X439845Y1029499D01*
X437300Y1029834D01*
D02*
G37*
G36*
X411900D02*
X409355Y1029499D01*
X406983Y1028517D01*
X404946Y1026954D01*
X403383Y1024917D01*
X402401Y1022545D01*
X402066Y1020000D01*
X402401Y1017455D01*
X402960Y1016106D01*
X382677Y995823D01*
X381903Y994666D01*
X381631Y993300D01*
Y946681D01*
X381166Y946488D01*
X379494Y945206D01*
X378212Y943534D01*
X377406Y941588D01*
X377131Y939500D01*
Y926500D01*
X377406Y924412D01*
X378212Y922466D01*
X379494Y920794D01*
X381166Y919512D01*
X383112Y918706D01*
X385200Y918431D01*
X387288Y918706D01*
X389235Y919512D01*
X390906Y920794D01*
X392188Y922466D01*
X392994Y924412D01*
X393269Y926500D01*
Y939500D01*
X392994Y941588D01*
X392188Y943534D01*
X390906Y945206D01*
X389235Y946488D01*
X388769Y946681D01*
Y991822D01*
X408006Y1011059D01*
X409355Y1010501D01*
X411900Y1010166D01*
X414445Y1010501D01*
X416817Y1011483D01*
X418854Y1013046D01*
X420417Y1015083D01*
X421399Y1017455D01*
X421734Y1020000D01*
X421399Y1022545D01*
X420417Y1024917D01*
X418854Y1026954D01*
X416817Y1028517D01*
X414445Y1029499D01*
X411900Y1029834D01*
D02*
G37*
G36*
X386500D02*
X383955Y1029499D01*
X381583Y1028517D01*
X379546Y1026954D01*
X377983Y1024917D01*
X377001Y1022545D01*
X376666Y1020000D01*
X377001Y1017455D01*
X377560Y1016106D01*
X357277Y995823D01*
X356503Y994666D01*
X356231Y993300D01*
Y946681D01*
X355765Y946488D01*
X354094Y945206D01*
X352812Y943534D01*
X352006Y941588D01*
X351731Y939500D01*
Y926500D01*
X352006Y924412D01*
X352812Y922466D01*
X354094Y920794D01*
X355765Y919512D01*
X357712Y918706D01*
X359800Y918431D01*
X361888Y918706D01*
X363834Y919512D01*
X365506Y920794D01*
X366788Y922466D01*
X367594Y924412D01*
X367869Y926500D01*
Y939500D01*
X367594Y941588D01*
X366788Y943534D01*
X365506Y945206D01*
X363834Y946488D01*
X363369Y946681D01*
Y991822D01*
X382606Y1011059D01*
X383955Y1010501D01*
X386500Y1010166D01*
X389045Y1010501D01*
X391417Y1011483D01*
X393454Y1013046D01*
X395017Y1015083D01*
X395999Y1017455D01*
X396334Y1020000D01*
X395999Y1022545D01*
X395017Y1024917D01*
X393454Y1026954D01*
X391417Y1028517D01*
X389045Y1029499D01*
X386500Y1029834D01*
D02*
G37*
G36*
X766200Y718969D02*
X764112Y718694D01*
X762166Y717888D01*
X760494Y716606D01*
X759212Y714934D01*
X758406Y712988D01*
X758131Y710900D01*
Y697900D01*
X758406Y695812D01*
X759212Y693866D01*
X760494Y692194D01*
X762166Y690912D01*
X764112Y690106D01*
X766200Y689831D01*
X768288Y690106D01*
X770235Y690912D01*
X771906Y692194D01*
X773188Y693866D01*
X773994Y695812D01*
X774269Y697900D01*
Y710900D01*
X773994Y712988D01*
X773188Y714934D01*
X771906Y716606D01*
X770235Y717888D01*
X768288Y718694D01*
X766200Y718969D01*
D02*
G37*
G36*
X740800D02*
X738712Y718694D01*
X736766Y717888D01*
X735094Y716606D01*
X733812Y714934D01*
X733006Y712988D01*
X732731Y710900D01*
Y697900D01*
X733006Y695812D01*
X733812Y693866D01*
X735094Y692194D01*
X736766Y690912D01*
X738712Y690106D01*
X740800Y689831D01*
X742888Y690106D01*
X744835Y690912D01*
X746506Y692194D01*
X747788Y693866D01*
X748594Y695812D01*
X748869Y697900D01*
Y710900D01*
X748594Y712988D01*
X747788Y714934D01*
X746506Y716606D01*
X744835Y717888D01*
X742888Y718694D01*
X740800Y718969D01*
D02*
G37*
G36*
X715400D02*
X713312Y718694D01*
X711366Y717888D01*
X709694Y716606D01*
X708412Y714934D01*
X707606Y712988D01*
X707331Y710900D01*
Y697900D01*
X707606Y695812D01*
X708412Y693866D01*
X709694Y692194D01*
X711366Y690912D01*
X713312Y690106D01*
X715400Y689831D01*
X717488Y690106D01*
X719435Y690912D01*
X721106Y692194D01*
X722388Y693866D01*
X723194Y695812D01*
X723469Y697900D01*
Y710900D01*
X723194Y712988D01*
X722388Y714934D01*
X721106Y716606D01*
X719435Y717888D01*
X717488Y718694D01*
X715400Y718969D01*
D02*
G37*
G36*
X869000Y793703D02*
X866489Y793372D01*
X864148Y792403D01*
X862139Y790861D01*
X860597Y788851D01*
X859628Y786511D01*
X859297Y784000D01*
X859628Y781489D01*
X860597Y779148D01*
X862139Y777139D01*
X864148Y775597D01*
X866489Y774628D01*
X869000Y774297D01*
X871511Y774628D01*
X873851Y775597D01*
X875861Y777139D01*
X877403Y779148D01*
X878372Y781489D01*
X878703Y784000D01*
X878372Y786511D01*
X877403Y788851D01*
X875861Y790861D01*
X873851Y792403D01*
X871511Y793372D01*
X869000Y793703D01*
D02*
G37*
G36*
X817000Y718969D02*
X814912Y718694D01*
X812965Y717888D01*
X811294Y716606D01*
X810012Y714934D01*
X809206Y712988D01*
X808931Y710900D01*
Y697900D01*
X809206Y695812D01*
X810012Y693866D01*
X811294Y692194D01*
X812965Y690912D01*
X814912Y690106D01*
X817000Y689831D01*
X819088Y690106D01*
X821034Y690912D01*
X822706Y692194D01*
X823988Y693866D01*
X824794Y695812D01*
X825069Y697900D01*
Y710900D01*
X824794Y712988D01*
X823988Y714934D01*
X822706Y716606D01*
X821034Y717888D01*
X819088Y718694D01*
X817000Y718969D01*
D02*
G37*
G36*
X791600D02*
X789512Y718694D01*
X787566Y717888D01*
X785894Y716606D01*
X784612Y714934D01*
X783806Y712988D01*
X783531Y710900D01*
Y697900D01*
X783806Y695812D01*
X784612Y693866D01*
X785894Y692194D01*
X787566Y690912D01*
X789512Y690106D01*
X791600Y689831D01*
X793688Y690106D01*
X795635Y690912D01*
X797306Y692194D01*
X798588Y693866D01*
X799394Y695812D01*
X799669Y697900D01*
Y710900D01*
X799394Y712988D01*
X798588Y714934D01*
X797306Y716606D01*
X795635Y717888D01*
X793688Y718694D01*
X791600Y718969D01*
D02*
G37*
G36*
X690000D02*
X687912Y718694D01*
X685965Y717888D01*
X684294Y716606D01*
X683012Y714934D01*
X682206Y712988D01*
X681931Y710900D01*
Y697900D01*
X682206Y695812D01*
X683012Y693866D01*
X684294Y692194D01*
X685965Y690912D01*
X687912Y690106D01*
X690000Y689831D01*
X692088Y690106D01*
X694035Y690912D01*
X695706Y692194D01*
X696988Y693866D01*
X697794Y695812D01*
X698069Y697900D01*
Y710900D01*
X697794Y712988D01*
X696988Y714934D01*
X695706Y716606D01*
X694035Y717888D01*
X692088Y718694D01*
X690000Y718969D01*
D02*
G37*
G36*
X588400D02*
X586312Y718694D01*
X584366Y717888D01*
X582694Y716606D01*
X581412Y714934D01*
X580606Y712988D01*
X580331Y710900D01*
Y697900D01*
X580606Y695812D01*
X581412Y693866D01*
X582694Y692194D01*
X584366Y690912D01*
X586312Y690106D01*
X588400Y689831D01*
X590488Y690106D01*
X592435Y690912D01*
X594106Y692194D01*
X595388Y693866D01*
X596194Y695812D01*
X596469Y697900D01*
Y710900D01*
X596194Y712988D01*
X595388Y714934D01*
X594106Y716606D01*
X592435Y717888D01*
X590488Y718694D01*
X588400Y718969D01*
D02*
G37*
G36*
X563000D02*
X560912Y718694D01*
X558965Y717888D01*
X557294Y716606D01*
X556012Y714934D01*
X555206Y712988D01*
X554931Y710900D01*
Y697900D01*
X555206Y695812D01*
X556012Y693866D01*
X557294Y692194D01*
X558965Y690912D01*
X560912Y690106D01*
X563000Y689831D01*
X565088Y690106D01*
X567034Y690912D01*
X568706Y692194D01*
X569988Y693866D01*
X570794Y695812D01*
X571069Y697900D01*
Y710900D01*
X570794Y712988D01*
X569988Y714934D01*
X568706Y716606D01*
X567034Y717888D01*
X565088Y718694D01*
X563000Y718969D01*
D02*
G37*
G36*
X537600D02*
X535512Y718694D01*
X533565Y717888D01*
X531894Y716606D01*
X530612Y714934D01*
X529806Y712988D01*
X529531Y710900D01*
Y697900D01*
X529806Y695812D01*
X530612Y693866D01*
X531894Y692194D01*
X533565Y690912D01*
X535512Y690106D01*
X537600Y689831D01*
X539688Y690106D01*
X541634Y690912D01*
X543306Y692194D01*
X544588Y693866D01*
X545394Y695812D01*
X545669Y697900D01*
Y710900D01*
X545394Y712988D01*
X544588Y714934D01*
X543306Y716606D01*
X541634Y717888D01*
X539688Y718694D01*
X537600Y718969D01*
D02*
G37*
G36*
X664600D02*
X662512Y718694D01*
X660565Y717888D01*
X658894Y716606D01*
X657612Y714934D01*
X656806Y712988D01*
X656531Y710900D01*
Y697900D01*
X656806Y695812D01*
X657612Y693866D01*
X658894Y692194D01*
X660565Y690912D01*
X662512Y690106D01*
X664600Y689831D01*
X666688Y690106D01*
X668634Y690912D01*
X670306Y692194D01*
X671588Y693866D01*
X672394Y695812D01*
X672669Y697900D01*
Y710900D01*
X672394Y712988D01*
X671588Y714934D01*
X670306Y716606D01*
X668634Y717888D01*
X666688Y718694D01*
X664600Y718969D01*
D02*
G37*
G36*
X639200D02*
X637112Y718694D01*
X635165Y717888D01*
X633494Y716606D01*
X632212Y714934D01*
X631406Y712988D01*
X631131Y710900D01*
Y697900D01*
X631406Y695812D01*
X632212Y693866D01*
X633494Y692194D01*
X635165Y690912D01*
X637112Y690106D01*
X639200Y689831D01*
X641288Y690106D01*
X643234Y690912D01*
X644906Y692194D01*
X646188Y693866D01*
X646994Y695812D01*
X647269Y697900D01*
Y710900D01*
X646994Y712988D01*
X646188Y714934D01*
X644906Y716606D01*
X643234Y717888D01*
X641288Y718694D01*
X639200Y718969D01*
D02*
G37*
G36*
X613800D02*
X611712Y718694D01*
X609766Y717888D01*
X608094Y716606D01*
X606812Y714934D01*
X606006Y712988D01*
X605731Y710900D01*
Y697900D01*
X606006Y695812D01*
X606812Y693866D01*
X608094Y692194D01*
X609766Y690912D01*
X611712Y690106D01*
X613800Y689831D01*
X615888Y690106D01*
X617835Y690912D01*
X619506Y692194D01*
X620788Y693866D01*
X621594Y695812D01*
X621869Y697900D01*
Y710900D01*
X621594Y712988D01*
X620788Y714934D01*
X619506Y716606D01*
X617835Y717888D01*
X615888Y718694D01*
X613800Y718969D01*
D02*
G37*
G36*
X690000Y947569D02*
X687912Y947294D01*
X685965Y946488D01*
X684294Y945206D01*
X683012Y943534D01*
X682206Y941588D01*
X681931Y939500D01*
Y926500D01*
X682206Y924412D01*
X683012Y922466D01*
X684294Y920794D01*
X685965Y919512D01*
X687912Y918706D01*
X690000Y918431D01*
X692088Y918706D01*
X694035Y919512D01*
X695706Y920794D01*
X696988Y922466D01*
X697794Y924412D01*
X698069Y926500D01*
Y939500D01*
X697794Y941588D01*
X696988Y943534D01*
X695706Y945206D01*
X694035Y946488D01*
X692088Y947294D01*
X690000Y947569D01*
D02*
G37*
G36*
X563000D02*
X560912Y947294D01*
X558965Y946488D01*
X557294Y945206D01*
X556012Y943534D01*
X555206Y941588D01*
X554931Y939500D01*
Y926500D01*
X555206Y924412D01*
X556012Y922466D01*
X557294Y920794D01*
X558965Y919512D01*
X560912Y918706D01*
X563000Y918431D01*
X565088Y918706D01*
X567034Y919512D01*
X568706Y920794D01*
X569988Y922466D01*
X570794Y924412D01*
X571069Y926500D01*
Y939500D01*
X570794Y941588D01*
X569988Y943534D01*
X568706Y945206D01*
X567034Y946488D01*
X565088Y947294D01*
X563000Y947569D01*
D02*
G37*
G36*
X537600D02*
X535512Y947294D01*
X533565Y946488D01*
X531894Y945206D01*
X530612Y943534D01*
X529806Y941588D01*
X529531Y939500D01*
Y926500D01*
X529806Y924412D01*
X530612Y922466D01*
X531894Y920794D01*
X533565Y919512D01*
X535512Y918706D01*
X537600Y918431D01*
X539688Y918706D01*
X541634Y919512D01*
X543306Y920794D01*
X544588Y922466D01*
X545394Y924412D01*
X545669Y926500D01*
Y939500D01*
X545394Y941588D01*
X544588Y943534D01*
X543306Y945206D01*
X541634Y946488D01*
X539688Y947294D01*
X537600Y947569D01*
D02*
G37*
G36*
X791600D02*
X789512Y947294D01*
X787566Y946488D01*
X785894Y945206D01*
X784612Y943534D01*
X783806Y941588D01*
X783531Y939500D01*
Y926500D01*
X783806Y924412D01*
X784612Y922466D01*
X785894Y920794D01*
X787566Y919512D01*
X789512Y918706D01*
X791600Y918431D01*
X793688Y918706D01*
X795635Y919512D01*
X797306Y920794D01*
X798588Y922466D01*
X799394Y924412D01*
X799669Y926500D01*
Y939500D01*
X799394Y941588D01*
X798588Y943534D01*
X797306Y945206D01*
X795635Y946488D01*
X793688Y947294D01*
X791600Y947569D01*
D02*
G37*
G36*
X766200D02*
X764112Y947294D01*
X762166Y946488D01*
X760494Y945206D01*
X759212Y943534D01*
X758406Y941588D01*
X758131Y939500D01*
Y926500D01*
X758406Y924412D01*
X759212Y922466D01*
X760494Y920794D01*
X762166Y919512D01*
X764112Y918706D01*
X766200Y918431D01*
X768288Y918706D01*
X770235Y919512D01*
X771906Y920794D01*
X773188Y922466D01*
X773994Y924412D01*
X774269Y926500D01*
Y939500D01*
X773994Y941588D01*
X773188Y943534D01*
X771906Y945206D01*
X770235Y946488D01*
X768288Y947294D01*
X766200Y947569D01*
D02*
G37*
G36*
X740800D02*
X738712Y947294D01*
X736766Y946488D01*
X735094Y945206D01*
X733812Y943534D01*
X733006Y941588D01*
X732731Y939500D01*
Y926500D01*
X733006Y924412D01*
X733812Y922466D01*
X735094Y920794D01*
X736766Y919512D01*
X738712Y918706D01*
X740800Y918431D01*
X742888Y918706D01*
X744835Y919512D01*
X746506Y920794D01*
X747788Y922466D01*
X748594Y924412D01*
X748869Y926500D01*
Y939500D01*
X748594Y941588D01*
X747788Y943534D01*
X746506Y945206D01*
X744835Y946488D01*
X742888Y947294D01*
X740800Y947569D01*
D02*
G37*
G36*
X538900Y1029834D02*
X536355Y1029499D01*
X533983Y1028517D01*
X531946Y1026954D01*
X530383Y1024917D01*
X529401Y1022545D01*
X529066Y1020000D01*
X529401Y1017455D01*
X530383Y1015083D01*
X531946Y1013046D01*
X533983Y1011483D01*
X535331Y1010925D01*
Y980378D01*
X509677Y954723D01*
X508903Y953566D01*
X508631Y952200D01*
Y946681D01*
X508166Y946488D01*
X506494Y945206D01*
X505212Y943534D01*
X504406Y941588D01*
X504131Y939500D01*
Y926500D01*
X504406Y924412D01*
X505212Y922466D01*
X506494Y920794D01*
X508166Y919512D01*
X510112Y918706D01*
X512200Y918431D01*
X514288Y918706D01*
X516235Y919512D01*
X517906Y920794D01*
X519188Y922466D01*
X519994Y924412D01*
X520269Y926500D01*
Y939500D01*
X519994Y941588D01*
X519188Y943534D01*
X517906Y945206D01*
X516235Y946488D01*
X515769Y946681D01*
Y950722D01*
X541423Y976377D01*
X542197Y977534D01*
X542469Y978900D01*
Y1010925D01*
X543817Y1011483D01*
X545854Y1013046D01*
X547417Y1015083D01*
X548399Y1017455D01*
X548734Y1020000D01*
X548399Y1022545D01*
X547417Y1024917D01*
X545854Y1026954D01*
X543817Y1028517D01*
X541445Y1029499D01*
X538900Y1029834D01*
D02*
G37*
G36*
X867730Y864081D02*
X866348Y863898D01*
X863876Y862875D01*
X861754Y861246D01*
X860125Y859124D01*
X859101Y856652D01*
X858920Y855270D01*
X867730D01*
Y864081D01*
D02*
G37*
G36*
X879081Y852730D02*
X870270D01*
Y843920D01*
X871652Y844101D01*
X874124Y845125D01*
X876246Y846754D01*
X877875Y848876D01*
X878898Y851348D01*
X879081Y852730D01*
D02*
G37*
G36*
X867730D02*
X858920D01*
X859101Y851348D01*
X860125Y848876D01*
X861754Y846754D01*
X863876Y845125D01*
X866348Y844101D01*
X867730Y843920D01*
Y852730D01*
D02*
G37*
G36*
X825540Y931730D02*
X818270D01*
Y917960D01*
X825540D01*
Y931730D01*
D02*
G37*
G36*
X815730D02*
X808460D01*
Y917960D01*
X815730D01*
Y931730D01*
D02*
G37*
G36*
X870270Y864081D02*
Y855270D01*
X879081D01*
X878898Y856652D01*
X877875Y859124D01*
X876246Y861246D01*
X874124Y862875D01*
X871652Y863898D01*
X870270Y864081D01*
D02*
G37*
%LPD*%
D10*
X909000Y389000D02*
D03*
Y309000D02*
D03*
X736333Y389000D02*
D03*
Y309000D02*
D03*
X563667Y389000D02*
D03*
Y309000D02*
D03*
X391000Y389000D02*
D03*
Y309000D02*
D03*
D11*
X426511Y542800D02*
X488800D01*
X545000Y599000D01*
X575100D01*
X589200Y584900D01*
X426511Y441200D02*
Y471511D01*
X539900Y584900D01*
X563800D01*
X594674Y542800D02*
X619800D01*
X640000Y563000D01*
Y584900D01*
X594674Y441200D02*
Y488326D01*
X582000Y501000D02*
X594674Y488326D01*
X582000Y501000D02*
Y552300D01*
X614600Y584900D01*
X665400Y503926D02*
X714326Y455000D01*
X665400Y503926D02*
Y584900D01*
X711200Y540800D02*
X775837D01*
X690800Y561200D02*
X711200Y540800D01*
X690800Y561200D02*
Y584900D01*
X391000Y389000D02*
Y432000D01*
X400200Y441200D01*
X426511D01*
X563667Y389000D02*
Y432667D01*
X572200Y441200D01*
X594674D01*
X736333Y389000D02*
Y432992D01*
X714326Y455000D02*
X736333Y432992D01*
X909000Y389000D02*
Y435000D01*
X887000Y457000D02*
X909000Y435000D01*
X869489Y457000D02*
X887000D01*
X915200Y441200D02*
X931000D01*
X909000Y435000D02*
X915200Y441200D01*
X742541Y439200D02*
X775837D01*
X736333Y432992D02*
X742541Y439200D01*
X533163Y457000D02*
X556400D01*
X572200Y441200D01*
X365000Y457000D02*
X384400D01*
X400200Y441200D01*
X461400Y933000D02*
Y993300D01*
X488100Y1020000D01*
X436000Y933000D02*
Y993300D01*
X462700Y1020000D01*
X410600Y933000D02*
Y993300D01*
X437300Y1020000D01*
X385200Y933000D02*
Y993300D01*
X411900Y1020000D01*
X359800Y933000D02*
Y993300D01*
X386500Y1020000D01*
X334400Y933000D02*
Y993300D01*
X361100Y1020000D01*
X715400Y933000D02*
Y951400D01*
X730000Y966000D01*
X664600Y933000D02*
Y952600D01*
X683000Y971000D01*
X639200Y933000D02*
Y949200D01*
X667000Y977000D01*
X613800Y933000D02*
Y950800D01*
X645000Y982000D01*
X588400Y933000D02*
Y953400D01*
X623000Y988000D01*
X512200Y933000D02*
Y952200D01*
X538900Y978900D01*
Y1020000D01*
X817000Y509488D02*
X869489Y457000D01*
X817000Y509488D02*
Y534900D01*
X690800Y661100D02*
X817000Y534900D01*
X834500Y542800D02*
X931000D01*
X716200Y661100D02*
X834500Y542800D01*
X334400Y634911D02*
X426511Y542800D01*
X334400Y634911D02*
Y704400D01*
X700300Y677000D02*
X716200Y661100D01*
X421000Y677000D02*
X700300D01*
X410600Y687400D02*
X421000Y677000D01*
X410600Y687400D02*
Y704400D01*
X909000Y309000D02*
X909000Y309000D01*
X391000Y309000D02*
X563667D01*
X736333D02*
X909000D01*
X563667D02*
X650000D01*
X736333D01*
X429000Y637000D02*
X638700D01*
X385200Y680800D02*
X429000Y637000D01*
X385200Y680800D02*
Y704400D01*
X638700Y637000D02*
X690800Y584900D01*
X408000Y614000D02*
X610900D01*
X359800Y662200D02*
X408000Y614000D01*
X359800Y662200D02*
Y704400D01*
X610900Y614000D02*
X640000Y584900D01*
X719300Y988000D02*
X745300Y1014000D01*
X623000Y988000D02*
X719300D01*
X746300Y1014000D02*
Y1020000D01*
X738700Y982000D02*
X770700Y1014000D01*
X645000Y982000D02*
X738700D01*
X771700Y1014000D02*
Y1020000D01*
X759100Y977000D02*
X796100Y1014000D01*
X667000Y977000D02*
X759100D01*
X797100Y1014000D02*
Y1020000D01*
X778500Y971000D02*
X821500Y1014000D01*
X683000Y971000D02*
X778500D01*
X822500Y1014000D02*
Y1020000D01*
X846900Y999900D02*
Y1014000D01*
X813000Y966000D02*
X846900Y999900D01*
X847900Y1014000D02*
Y1020000D01*
X730000Y966000D02*
X813000D01*
X486800Y933000D02*
Y959200D01*
X480000Y966000D02*
X486800Y959200D01*
X480000Y966000D02*
Y986500D01*
X513500Y1020000D01*
D12*
X563800Y584900D02*
D03*
D13*
X589200D02*
D03*
X614600D02*
D03*
X640000D02*
D03*
X665400D02*
D03*
X690800D02*
D03*
X716200D02*
D03*
X563800Y661100D02*
D03*
X589200D02*
D03*
X614600D02*
D03*
X640000D02*
D03*
X665400D02*
D03*
X690800D02*
D03*
X716200D02*
D03*
D14*
X594674Y542800D02*
D03*
Y441200D02*
D03*
X426511Y542800D02*
D03*
Y441200D02*
D03*
X775000Y542800D02*
D03*
Y441200D02*
D03*
X931000Y542800D02*
D03*
Y441200D02*
D03*
D15*
X505000Y587000D02*
D03*
Y657000D02*
D03*
X715000Y527000D02*
D03*
Y457000D02*
D03*
X869000Y854000D02*
D03*
Y784000D02*
D03*
X565000Y976000D02*
D03*
X495000D02*
D03*
X365000Y527000D02*
D03*
Y457000D02*
D03*
X533163Y527000D02*
D03*
Y457000D02*
D03*
X869489Y527000D02*
D03*
Y457000D02*
D03*
D16*
X564300Y1020000D02*
D03*
D17*
X538900D02*
D03*
X513500D02*
D03*
X488100D02*
D03*
X462700D02*
D03*
X437300D02*
D03*
X411900D02*
D03*
X386500D02*
D03*
X361100D02*
D03*
X335700D02*
D03*
D18*
X846900Y1014000D02*
D03*
D19*
X821500D02*
D03*
X796100D02*
D03*
X770700D02*
D03*
X745300D02*
D03*
X719900D02*
D03*
X694500D02*
D03*
X669100D02*
D03*
D20*
X817000Y933000D02*
D03*
D21*
X791600D02*
D03*
X766200D02*
D03*
X740800D02*
D03*
X715400D02*
D03*
X690000D02*
D03*
X664600D02*
D03*
X639200D02*
D03*
X613800D02*
D03*
X588400D02*
D03*
X563000D02*
D03*
X537600D02*
D03*
X512200D02*
D03*
X486800D02*
D03*
X461400D02*
D03*
X436000D02*
D03*
X410600D02*
D03*
X385200D02*
D03*
X359800D02*
D03*
X334400D02*
D03*
X817000Y704400D02*
D03*
X791600D02*
D03*
X766200D02*
D03*
X740800D02*
D03*
X715400D02*
D03*
X690000D02*
D03*
X664600D02*
D03*
X639200D02*
D03*
X613800D02*
D03*
X588400D02*
D03*
X563000D02*
D03*
X537600D02*
D03*
X512200D02*
D03*
X486800D02*
D03*
X461400D02*
D03*
X436000D02*
D03*
X410600D02*
D03*
X385200D02*
D03*
X359800D02*
D03*
X334400D02*
D03*
D22*
X650000Y309000D02*
D03*
M02*
